<svg xmlns="http://www.w3.org/2000/svg" width="1000" height="300" viewBox="0 0 1000 300" font-family="system-ui, -apple-system, Segoe UI, sans-serif">
<rect width="1000" height="300" fill="#ffffff"/>
<text x="62" y="15" font-size="13" font-weight="500" fill="#2C2C2A">Доступность нод PostgreSQL (1 = отвечает)</text>
<line x1="62" y1="266.0" x2="810" y2="266.0" stroke="#E6E4DD" stroke-width="1"/>
<text x="54" y="270.0" font-size="11" fill="#5F5E5A" text-anchor="end">0.0</text>
<line x1="62" y1="205.0" x2="810" y2="205.0" stroke="#E6E4DD" stroke-width="1"/>
<text x="54" y="209.0" font-size="11" fill="#5F5E5A" text-anchor="end">0.3</text>
<line x1="62" y1="144.0" x2="810" y2="144.0" stroke="#E6E4DD" stroke-width="1"/>
<text x="54" y="148.0" font-size="11" fill="#5F5E5A" text-anchor="end">0.6</text>
<line x1="62" y1="83.0" x2="810" y2="83.0" stroke="#E6E4DD" stroke-width="1"/>
<text x="54" y="87.0" font-size="11" fill="#5F5E5A" text-anchor="end">0.9</text>
<line x1="62" y1="22.0" x2="810" y2="22.0" stroke="#E6E4DD" stroke-width="1"/>
<text x="54" y="26.0" font-size="11" fill="#5F5E5A" text-anchor="end">1.2</text>
<text x="62.0" y="288" font-size="11" fill="#5F5E5A" text-anchor="middle">08:56</text>
<text x="186.7" y="288" font-size="11" fill="#5F5E5A" text-anchor="middle">08:57</text>
<text x="311.3" y="288" font-size="11" fill="#5F5E5A" text-anchor="middle">08:58</text>
<text x="436.0" y="288" font-size="11" fill="#5F5E5A" text-anchor="middle">08:59</text>
<text x="560.7" y="288" font-size="11" fill="#5F5E5A" text-anchor="middle">09:00</text>
<text x="685.3" y="288" font-size="11" fill="#5F5E5A" text-anchor="middle">09:01</text>
<text x="810.0" y="288" font-size="11" fill="#5F5E5A" text-anchor="middle">09:02</text>
<line x1="241.1" y1="22" x2="241.1" y2="266" stroke="#A32D2D" stroke-width="1.2" stroke-dasharray="5 4"/>
<text x="245.1" y="34" font-size="11" fill="#A32D2D">kill -9 реплики</text>
<line x1="485.2" y1="22" x2="485.2" y2="266" stroke="#A32D2D" stroke-width="1.2" stroke-dasharray="5 4"/>
<text x="489.2" y="34" font-size="11" fill="#A32D2D">kill -9 инстанса</text>
<path d="M62.0,62.7 L81.7,62.7 L101.4,62.7 L121.1,62.7 L140.7,62.7 L160.4,62.7 L180.1,62.7 L199.8,62.7 L219.5,62.7 L239.2,62.7 L258.8,62.7 L278.5,62.7 L298.2,62.7 L317.9,62.7 L337.6,62.7 L357.3,62.7 L376.9,62.7 L396.6,62.7 L416.3,62.7 L436.0,62.7 L455.7,62.7 L475.4,62.7 L495.1,62.7 L514.7,62.7 L534.4,62.7 L554.1,62.7 L573.8,62.7 L593.5,62.7 L613.2,62.7 L632.8,62.7 L652.5,62.7 L672.2,62.7 L691.9,62.7 L711.6,62.7 L731.3,62.7 L750.9,62.7 L770.6,62.7 L790.3,62.7 L810.0,62.7" fill="none" stroke="#378ADD" stroke-width="1.8" stroke-linejoin="round"/>
<line x1="822" y1="28" x2="842" y2="28" stroke="#378ADD" stroke-width="2.5"/>
<text x="848" y="32" font-size="11" fill="#2C2C2A">pg-master</text>
<path d="M62.0,62.7 L81.7,62.7 L101.4,62.7 L121.1,62.7 L140.7,62.7 L160.4,62.7 L180.1,62.7 L199.8,62.7 L219.5,62.7 L239.2,62.7 L258.8,62.7 L278.5,62.7 L298.2,62.7 L317.9,62.7 L337.6,62.7 L357.3,62.7 L376.9,62.7 L396.6,62.7 L416.3,62.7 L436.0,62.7 L455.7,62.7 L475.4,62.7 L495.1,62.7 L514.7,62.7 L534.4,62.7 L554.1,62.7 L573.8,62.7 L593.5,62.7 L613.2,62.7 L632.8,62.7 L652.5,62.7 L672.2,62.7 L691.9,62.7 L711.6,62.7 L731.3,62.7 L750.9,62.7 L770.6,62.7 L790.3,62.7 L810.0,62.7" fill="none" stroke="#1D9E75" stroke-width="1.8" stroke-linejoin="round"/>
<line x1="822" y1="46" x2="842" y2="46" stroke="#1D9E75" stroke-width="2.5"/>
<text x="848" y="50" font-size="11" fill="#2C2C2A">pg-replica-1</text>
<path d="M62.0,62.7 L81.7,62.7 L101.4,62.7 L121.1,62.7 L140.7,62.7 L160.4,62.7 L180.1,62.7 L199.8,62.7 L219.5,62.7 L239.2,62.7" fill="none" stroke="#D85A30" stroke-width="1.8" stroke-linejoin="round"/>
<line x1="822" y1="64" x2="842" y2="64" stroke="#D85A30" stroke-width="2.5"/>
<text x="848" y="68" font-size="11" fill="#2C2C2A">pg-replica-2</text>
<text x="62" y="288" font-size="11" fill="#888780">по данным postgres-exporter</text>
</svg>